<svg id="Layer_1" data-name="Layer 1" xmlns="http://www.w3.org/2000/svg" viewBox="0 0 321.88 770.82"><defs><style>.cls-1{fill:#231f20;}</style></defs><path class="cls-1" d="M607.29,114.59m0,107.29h0a53.65,53.65,0,0,0-53.65,53.65v63.53H607.3a53.65,53.65,0,0,0,53.64-53.65v-9.88A53.65,53.65,0,0,0,607.3,221.88ZM553.65,778.12A107.3,107.3,0,0,0,660.94,885.41h0V553.65A107.28,107.28,0,0,0,553.65,446.36h0ZM339.06,221.88v449A107.3,107.3,0,0,0,446.35,778.12h0V114.59h0A107.3,107.3,0,0,0,339.06,221.88Z" transform="translate(-339.06 -114.59)"/></svg>